<?xml version="1.0" encoding="utf-8"?>
<!-- Generator: Adobe Illustrator 27.6.1, SVG Export Plug-In . SVG Version: 6.00 Build 0)  -->
<svg version="1.1" id="Слой_1" xmlns="http://www.w3.org/2000/svg" xmlns:xlink="http://www.w3.org/1999/xlink" x="0px" y="0px"
	 viewBox="0 0 1242 936" style="enable-background:new 0 0 1242 936;" xml:space="preserve">
<style type="text/css">
	.st0{fill:url(#SVGID_1_);}
	.st1{fill:url(#SVGID_00000077302256261905861340000008303119485052805020_);}
	.st2{fill:url(#SVGID_00000067236842053559637300000012800006255014578820_);}
	.st3{fill:url(#SVGID_00000006674945513365413730000004565763042347478685_);}
	.st4{fill:url(#SVGID_00000103986583995559095170000014849282791345577131_);}
	.st5{fill:url(#SVGID_00000155111783724192889230000013567315290361157819_);}
	.st6{fill:url(#SVGID_00000060740043947127529820000007417087871537309370_);}
	.st7{fill:url(#SVGID_00000160150676322120331480000006762389219651310014_);}
</style>
<path d="M687.25,546.19c-24.1,28.04-55.1,43.32-92.97,45.96c-9.59,0.63-18.87,0.42-27.86-0.74c-11.67-1.48-22.8-4.46-33.38-9.03
	c-0.77-0.28-1.48-0.6-2.18-0.91c-4.29-1.86-8.43-4.04-12.54-6.47c-7.66-4.46-15-9.8-22.07-16.06c-4.74-4.18-9.14-8.57-13.14-13.14
	h-0.04c-8.71-10.75-9.03-26.07-1.26-37.53c2.25-3.34,4.46-6.43,6.32-8.78c0.56-0.77,1.12-1.55,1.83-2.28
	c33.38-43.18,79.83-76.21,132.75-89.32c-32.75,11.74-62.3,30.89-86.26,55.1c-9.66,9.7-18.48,20.24-26.28,31.38c0,0.04,0,0.04,0,0.07
	c3.41,6.78,7.62,13,12.61,18.52c4.78,5.34,10.3,10.05,16.27,13.98c14.72,9.77,32.68,14.9,51.69,13.6
	c10.86-0.74,21.08-3.51,30.36-7.98c2.81-1.3,5.52-2.85,8.12-4.5c0.91-0.53,1.79-1.09,2.67-1.69c12.58-8.54,22.66-20.31,29.02-34.12
	c0.11-0.14,0.14-0.28,0.18-0.39c5.59-12.3,8.33-26.07,7.34-40.48c-0.91-13.49-4.99-26-11.53-36.86c-0.35-0.74-0.77-1.51-1.3-2.21
	c-4.43-7.03-9.91-13.32-16.16-18.66l-0.04-0.04c-2.35-2.07-4.85-3.97-7.45-5.73c14.37-4.88,29.27-9.28,44.48-13.07
	c4.6-1.16,9.24-2.25,13.98-3.3c17.36,21.15,27.02,46.38,29.02,75.65C722.03,485.19,711.32,518.22,687.25,546.19z"/>
<path d="M254.13,456.54c0,32.85-9.61,59.97-28.82,81.36c-19.97,22.35-46.13,33.52-78.47,33.52c-29.87,0-55.17-10.55-75.9-31.66
	c-20.74-21.1-31.1-46.65-31.1-76.63c0-30.18,10.56-55.39,31.67-75.63c21.12-20.24,46.7-30.37,76.76-30.37
	c21.69,0,41.18,5.63,58.49,16.9c18.26,11.65,30.91,27.5,37.95,47.56h-47.94c-11.98-17.57-28.63-26.36-49.93-26.36
	c-18.26,0-33.72,6.64-46.37,19.91c-12.65,13.28-18.98,29.18-18.98,47.7c0,19.29,6.13,35.91,18.4,49.85
	c12.27,13.94,27.91,20.91,46.94,20.91c28.34,0,48.32-13.84,59.92-41.54h-77.33v-35.52H254.13z"/>
<path d="M413.3,567.41l-124.94,0V361.14h40.8v168.74l69.2,0C399.35,547.74,404.89,559.57,413.3,567.41z"/>
<linearGradient id="SVGID_1_" gradientUnits="userSpaceOnUse" x1="555.3389" y1="352.7431" x2="465.2825" y2="556.4878" gradientTransform="matrix(0.9951 0.0988 -0.0988 0.9951 58.9787 -49.0158)">
	<stop  offset="0" style="stop-color:#29ABE2"/>
	<stop  offset="1" style="stop-color:#0071BC"/>
</linearGradient>
<path class="st0" d="M576.07,322.05c-37.18,2.57-68.03,17.78-92.59,45.71c-23.89,27.16-34.96,58.79-33.17,94.84
	c-0.04,0.39,0,0.7,0.04,1.05c0,0.56,0.04,1.12,0.07,1.65v0.35c0.03,0.39,0.07,0.77,0.14,1.16c0.84,11.7,2.95,22.73,6.32,33.13
	c8.29-13.56,14.76-30.71,26.46-41.78c0.42-0.46,1.76,0.14,2.21-0.25c0.49-0.46,2.78-3.94,3.27-4.36c3.72-3.51,8.82-1.09,12.76-4.29
	c0.03-0.63,0.18,0.07,0.25-0.49c0.11-1.58,0.32-3.16,0.6-4.74c0.18-1.16,0.39-2.39,0.63-3.55c0.25-1.41,0.6-2.74,0.95-4.11
	c0.18-0.77,0.35-1.51,0.6-2.25c0.35-1.23,0.74-2.49,1.16-3.69c0.49-1.48,0.98-2.92,1.58-4.36c1.16-2.85,2.42-5.66,3.9-8.33
	c0.03-0.18,0.14-0.28,0.25-0.42v-0.04c0.11-0.18,0.14-0.25,0.25-0.39c0-0.07,0.07-0.07,0.04-0.11c0.35-0.6,0.67-1.16,1.02-1.72
	c13.42-23.19,37.7-39.42,66.45-41.39h0.21c4.85-1.65,9.8-3.23,14.83-4.74c23.47-7.03,48.21-12.72,73.54-16.97
	c0.84-0.14,1.72-0.28,2.57-0.42C643.36,329.43,611.91,319.59,576.07,322.05z M621.33,381.82c0.07,0.04,0.18,0.07,0.25,0.11
	c0.14,0.11,0.32,0.18,0.46,0.25c1.69-0.67,3.37-1.23,5.1-1.86c8.4-3.09,16.87-5.94,25.44-8.54
	C642.06,374.79,631.63,378.16,621.33,381.82z"/>
<path d="M740.86,572.83V366.56h60.21c19.59,0,35.1,4.11,46.51,12.32c13.13,9.36,19.69,23.49,19.69,42.4
	c0,18.15-7.7,31.71-23.11,40.68c22.26,7.45,33.38,23.3,33.38,47.55c0,21.2-7.42,37.34-22.26,48.42
	c-13.32,9.93-30.91,14.9-52.79,14.9H740.86z M827.03,425.42c0-14.61-9.32-21.91-27.96-21.91h-17.98v45.27h14.55
	C816.57,448.78,827.03,440.99,827.03,425.42z M781.09,483.16v52.72h23.97c15.02,0,24.92-3.93,29.67-11.81
	c2.09-3.45,3.14-8.16,3.14-14.11c0-17.86-10.75-26.79-32.24-26.79H781.09z"/>
<path d="M1088.68,572.83h-44.52l-16.27-44.69h-76.19l-16.55,44.69h-43.94l81.32-206.27h35.1L1088.68,572.83z M1015.63,493.18
	l-25.39-75.92l-25.97,75.92H1015.63z"/>
<path d="M1216.51,572.83h-105V366.56h40.8V535.3h64.2V572.83z"/>
<linearGradient id="SVGID_00000176725880069463954310000012407890787201556620_" gradientUnits="userSpaceOnUse" x1="587.2468" y1="366.8337" x2="497.1868" y2="570.5865" gradientTransform="matrix(0.9951 0.0988 -0.0988 0.9951 58.9787 -49.0158)">
	<stop  offset="0" style="stop-color:#29ABE2"/>
	<stop  offset="1" style="stop-color:#0071BC"/>
</linearGradient>
<path style="fill:url(#SVGID_00000176725880069463954310000012407890787201556620_);" d="M733.33,352.27
	c-15.16,2.7-30.29,5.91-45.29,9.66c-1.72,0.4-3.4,0.83-5.07,1.27c-0.68,0.14-1.36,0.32-2.04,0.51c-1.72,0.44-3.49,0.89-5.3,1.33
	c-1.09,0.3-2.17,0.61-3.26,0.91c-15.29,4.18-30.41,8.91-45.24,14.35c-1.71,0.62-3.42,1.2-5.08,1.87c-2.12,0.74-4.27,1.58-6.38,2.42
	c-1.08,0.4-2.06,0.83-3.14,1.23c-28.45,11.26-55.84,25.13-81.46,42.01c-8.54,5.89-17.05,12.05-25.22,18.6
	c-3.98,3.13-7.86,6.39-11.68,9.79c-0.48,0.45-0.95,0.9-1.43,1.34c-0.53,0.4-0.96,0.76-1.39,1.2
	c-11.88,10.86-22.68,22.81-31.25,36.21c-2.92,4.49-5.55,9.18-7.88,14.05c-0.61,1.19-1.26,2.53-1.85,3.86
	c-0.16,0.38-0.36,0.76-0.52,1.14c-0.19,0.57-0.47,1.28-0.65,1.89c-0.65,1.93-1.26,3.77-1.73,5.65c-1.78,6.94,1.6,14.5,8.32,17.08
	c0.05,0.04,0.09,0.04,0.14,0.04c0.71,0.23,1.46,0.41,2.21,0.63c1.59,0.4,3.23,0.79,4.96,1.09c14.08,19.82,33.2,35.74,55.16,46.08
	c-8.12,0.6-16.17,0.83-24.08,0.41c-7.53-0.27-14.87-1.1-21.97-2.41c-8.83-1.7-17.2-4.21-25.1-7.72c-2.71-1.2-5.29-2.54-7.93-4.02
	c-0.72-0.37-1.53-0.77-2.3-1.32c-0.24-0.12-0.53-0.29-0.77-0.45c-5.89-3.93-10.58-8.49-14.11-13.46c-0.26-0.4-0.51-0.75-0.77-1.15
	c-10.87-15.94-10.27-36.12,0.07-55.31c4.89-8.68,10.54-17.04,17-24.86c0.71-1.02,1.61-2.05,2.46-3.07c0.85-1.03,1.7-2.1,2.61-2.99
	c2.22-2.6,4.58-5.15,6.95-7.53c1.28-1.43,2.62-2.76,3.96-4.05c13.63-13.61,29.3-25.61,46.41-36.24l-0.05-0.04
	c1.02-0.62,2.03-1.25,3.05-1.82c2.96-1.86,6.02-3.64,9.08-5.37c1.29-0.73,2.62-1.47,3.91-2.16c24.55-13.62,51.31-24.63,78.68-33.47
	c1.26-0.41,2.48-0.77,3.74-1.23c2.26-0.71,4.51-1.42,6.77-2.08c2.08-0.6,4.2-1.21,6.28-1.81c18.53-5.33,37.13-9.69,55.23-13.15
	c1.23-0.27,2.41-0.44,3.69-0.67c1.96-0.36,3.87-0.68,5.78-1c0.68-0.14,1.41-0.24,2.09-0.37c1.87-0.31,3.69-0.67,5.51-0.98
	C701.42,355.43,717.83,353.47,733.33,352.27z"/>
<g>
	
		<linearGradient id="SVGID_00000002347083316406106850000007839645200820454563_" gradientUnits="userSpaceOnUse" x1="787.7005" y1="539.6751" x2="787.7005" y2="663.6417">
		<stop  offset="0" style="stop-color:#29ABE2"/>
		<stop  offset="1" style="stop-color:#0071BC"/>
	</linearGradient>
	<path style="fill:url(#SVGID_00000002347083316406106850000007839645200820454563_);" d="M784.13,592.55h5.84
		c2.64,0,4.8,0.53,6.49,1.59c1.68,1.06,3.32,3.04,4.9,5.94l32.79,59.53c0.79,1.52,0.4,2.28-1.19,2.28h-12.58
		c-1.12,0-1.88-0.43-2.28-1.29l-7.03-12.78h-46.55l-6.83,12.78c-0.4,0.86-1.16,1.29-2.28,1.29h-12.88c-1.65,0-2.08-0.76-1.29-2.28
		l32.49-59.53c1.59-2.84,3.17-4.8,4.75-5.89C780.07,593.1,781.95,592.55,784.13,592.55z M786.31,607.31l-15.55,29.02h34.07
		l-15.75-29.02c-0.27-0.46-0.63-0.69-1.09-0.69h-0.59C786.93,606.62,786.57,606.85,786.31,607.31z"/>
	
		<linearGradient id="SVGID_00000026130844465001469150000017307116640931936688_" gradientUnits="userSpaceOnUse" x1="877.5829" y1="539.6751" x2="877.5829" y2="663.6417">
		<stop  offset="0" style="stop-color:#29ABE2"/>
		<stop  offset="1" style="stop-color:#0071BC"/>
	</linearGradient>
	<path style="fill:url(#SVGID_00000026130844465001469150000017307116640931936688_);" d="M868.02,592.55h44.67
		c1.45,0,2.18,0.73,2.18,2.18v9.71c0,1.52-0.73,2.28-2.18,2.28h-44.08c-5.09,0-8.55,0.94-10.4,2.82c-1.85,1.88-2.77,5.43-2.77,10.65
		v14.07c0,5.28,0.92,8.87,2.77,10.75c1.85,1.88,5.32,2.82,10.4,2.82h44.08c1.45,0,2.18,0.73,2.18,2.18v9.71
		c0,1.45-0.73,2.18-2.18,2.18h-44.67c-10.04,0-17.17-1.98-21.39-5.94c-4.23-3.96-6.34-10.7-6.34-20.21V618.7
		c0-9.51,2.11-16.24,6.34-20.21C850.85,594.53,857.99,592.55,868.02,592.55z"/>
	
		<linearGradient id="SVGID_00000037666585206889472880000000892152308499794820_" gradientUnits="userSpaceOnUse" x1="964.6487" y1="539.6751" x2="964.6487" y2="663.6417">
		<stop  offset="0" style="stop-color:#29ABE2"/>
		<stop  offset="1" style="stop-color:#0071BC"/>
	</linearGradient>
	<path style="fill:url(#SVGID_00000037666585206889472880000000892152308499794820_);" d="M925.97,592.55h77.36
		c1.52,0,2.28,0.73,2.28,2.18v9.71c0,1.52-0.77,2.28-2.28,2.28h-31.1v52.99c0,1.45-0.72,2.18-2.18,2.18h-10.79
		c-1.45,0-2.18-0.72-2.18-2.18v-52.99h-31.1c-1.52,0-2.28-0.76-2.28-2.28v-9.71C923.69,593.28,924.45,592.55,925.97,592.55z"/>
	
		<linearGradient id="SVGID_00000018935817491626697480000007707052836142220711_" gradientUnits="userSpaceOnUse" x1="1024.4723" y1="539.6751" x2="1024.4723" y2="663.6417">
		<stop  offset="0" style="stop-color:#29ABE2"/>
		<stop  offset="1" style="stop-color:#0071BC"/>
	</linearGradient>
	<path style="fill:url(#SVGID_00000018935817491626697480000007707052836142220711_);" d="M1019.17,592.55h10.7
		c1.45,0,2.18,0.73,2.18,2.18v64.98c0,1.45-0.73,2.18-2.18,2.18h-10.7c-1.52,0-2.28-0.72-2.28-2.18v-64.98
		C1016.9,593.28,1017.65,592.55,1019.17,592.55z"/>
	
		<linearGradient id="SVGID_00000139278509276962328800000001106340699789091723_" gradientUnits="userSpaceOnUse" x1="1089.4016" y1="539.6751" x2="1089.4016" y2="663.6417">
		<stop  offset="0" style="stop-color:#29ABE2"/>
		<stop  offset="1" style="stop-color:#0071BC"/>
	</linearGradient>
	<path style="fill:url(#SVGID_00000139278509276962328800000001106340699789091723_);" d="M1044.23,592.55h12.48
		c1.06,0,1.82,0.43,2.28,1.29l29.02,53.29c0.2,0.46,0.6,0.69,1.19,0.69h0.49c0.53,0,0.89-0.23,1.09-0.69l28.62-53.29
		c0.4-0.86,1.16-1.29,2.28-1.29h12.98c1.59,0,1.98,0.76,1.19,2.28l-32.49,59.53c-1.59,2.91-3.17,4.89-4.75,5.94
		c-1.59,1.06-3.47,1.59-5.65,1.59h-5.75c-2.64,0-4.79-0.53-6.44-1.59c-1.65-1.05-3.3-3.04-4.95-5.94l-32.89-59.53
		C1042.15,593.31,1042.58,592.55,1044.23,592.55z"/>
	
		<linearGradient id="SVGID_00000150810277413686684910000007601983710831878561_" gradientUnits="userSpaceOnUse" x1="1178.7902" y1="539.6751" x2="1178.7902" y2="663.6417">
		<stop  offset="0" style="stop-color:#29ABE2"/>
		<stop  offset="1" style="stop-color:#0071BC"/>
	</linearGradient>
	<path style="fill:url(#SVGID_00000150810277413686684910000007601983710831878561_);" d="M1169.73,592.55h43.58
		c1.52,0,2.28,0.73,2.28,2.18v9.41c0,1.45-0.76,2.18-2.28,2.18h-43.29c-5.15,0-8.64,0.94-10.45,2.82
		c-1.82,1.88-2.72,5.43-2.72,10.65v0.99h55.96c1.45,0,2.18,0.72,2.18,2.18v7.83c0,1.45-0.73,2.18-2.18,2.18h-55.96v1.68
		c0,5.22,0.91,8.76,2.72,10.65c1.82,1.88,5.3,2.82,10.45,2.82h43.29c1.52,0,2.28,0.73,2.28,2.18v9.41c0,1.45-0.76,2.18-2.28,2.18
		h-43.58c-10.04,0-17.17-1.98-21.39-5.94c-4.23-3.96-6.34-10.7-6.34-20.21V618.7c0-9.51,2.11-16.24,6.34-20.21
		C1152.56,594.53,1159.69,592.55,1169.73,592.55z"/>
</g>
</svg>
